<?xml version="1.0" encoding="UTF-8" standalone="no"?>
<!-- Created with Inkscape (http://www.inkscape.org/) -->
<svg
   xmlns:dc="http://purl.org/dc/elements/1.1/"
   xmlns:cc="http://web.resource.org/cc/"
   xmlns:rdf="http://www.w3.org/1999/02/22-rdf-syntax-ns#"
   xmlns:svg="http://www.w3.org/2000/svg"
   xmlns="http://www.w3.org/2000/svg"
   xmlns:sodipodi="http://sodipodi.sourceforge.net/DTD/sodipodi-0.dtd"
   xmlns:inkscape="http://www.inkscape.org/namespaces/inkscape"
   width="625.49988"
   height="305.07031"
   id="svg2525"
   sodipodi:version="0.32"
   inkscape:version="0.44"
   version="1.0"
   sodipodi:docbase="E:\Logos"
   sodipodi:docname="Broadcom-Logo.svg">
  <defs
     id="defs2527" />
  <sodipodi:namedview
     id="base"
     pagecolor="#ffffff"
     bordercolor="#666666"
     borderopacity="1.0"
     inkscape:pageopacity="0.0"
     inkscape:pageshadow="2"
     inkscape:zoom="0.21553233"
     inkscape:cx="203.31709"
     inkscape:cy="191.38844"
     inkscape:document-units="px"
     inkscape:current-layer="layer1"
     inkscape:window-width="925"
     inkscape:window-height="573"
     inkscape:window-x="166"
     inkscape:window-y="324" />
  <metadata
     id="metadata2530">
    <rdf:RDF>
      <cc:Work
         rdf:about="">
        <dc:format>image/svg+xml</dc:format>
        <dc:type
           rdf:resource="http://purl.org/dc/dcmitype/StillImage" />
      </cc:Work>
    </rdf:RDF>
  </metadata>
  <g
     inkscape:label="Ebene 1"
     inkscape:groupmode="layer"
     id="layer1"
     transform="translate(-86.95071,-318.7988)">
    <path
       id="path2085"
       class="ps01"
       d="M 712.22426,585.62456 L 670.41159,585.62456 C 652.81546,585.71167 630.77667,561.49518 601.50784,561.75652 C 558.73694,562.19208 537.13376,603.65629 496.19216,603.13362 C 468.31706,602.87229 467.88151,585.189 457.51547,567.59287 L 430.94701,567.59287 C 438.61267,585.189 449.41426,623.43017 495.7566,623.86573 C 542.53455,624.30129 556.12368,582.92419 601.07228,582.92419 C 627.20518,582.92419 646.97911,605.83404 670.84715,605.83404 L 712.22426,605.83404 L 712.22426,585.62456"
       style="fill:#e21736;fill-rule:nonzero;stroke:none" />
    <path
       id="path2095"
       class="ps01"
       d="M 86.950707,585.62456 L 119.35553,585.62456 C 136.95171,585.71167 158.99045,561.49518 188.25933,561.75652 C 230.94307,562.19208 252.63341,603.65629 293.57496,603.13362 C 321.45006,602.87229 321.88562,585.189 332.2517,567.59287 L 358.82016,567.59287 C 351.1545,585.189 340.35291,623.43017 294.01052,623.86573 C 247.23262,624.30129 233.73061,582.92419 188.69489,582.92419 C 162.56194,582.92419 142.78806,605.83404 118.91997,605.83404 L 86.950707,605.83404 L 86.950707,585.62456"
       style="fill:#e21736;fill-rule:nonzero;stroke:none" />
    <path
       id="path2105"
       class="ps01 ps10"
       d="M 435.21535,469.33312 L 409.95356,469.246 L 399.23904,356.78734 C 398.6293,351.0381 395.66755,351.47366 395.66755,351.47366 C 395.66755,351.47366 392.70584,351.0381 392.09605,356.78734 L 381.20735,469.246 L 356.03263,469.246 L 370.84127,346.94394 C 375.02255,317.58799 395.66755,318.80751 395.66755,318.80751 C 395.66755,318.80751 416.22543,317.50087 420.49382,346.94394 L 435.21535,469.33312"
       style="fill:#e21736;fill-rule:nonzero;stroke:none;stroke-width:0.22400001;stroke-linecap:butt;stroke-linejoin:miter;stroke-miterlimit:4;stroke-dasharray:none" />
    <g
       id="g2571">
      <path
         style="fill:black;fill-rule:nonzero;stroke:none"
         d="M 694.54097,543.28927 C 695.41209,538.4111 700.02893,534.49116 704.99416,534.49116 C 709.87229,534.49116 713.18249,538.4111 712.31137,543.28927 C 711.4403,548.2545 706.73635,552.17444 701.85823,552.17444 C 696.89295,552.17444 693.6699,548.2545 694.54097,543.28927 M 709.9594,543.28927 C 710.65629,539.36933 708.39143,536.58179 704.64571,536.58179 C 700.72577,536.58179 697.58984,539.36933 696.89295,543.28927 C 696.1961,547.29627 698.3738,550.08381 702.20663,550.08381 C 706.03946,550.08381 709.26255,547.29627 709.9594,543.28927 M 706.99769,548.16739 L 704.64571,548.16739 L 703.25197,544.07323 L 701.684,544.07323 L 700.98711,548.16739 L 698.89647,548.16739 L 700.63866,538.58532 L 705.2555,538.58532 C 707.78165,538.58532 708.82699,539.28222 708.47854,541.54708 C 708.1301,543.28927 707.0848,543.98612 705.34261,544.07323 L 706.99769,548.16739 z M 704.5586,542.67948 C 705.60394,542.67948 706.3879,542.41815 706.64924,541.28574 C 706.82346,539.97906 705.42972,540.06618 704.5586,540.06618 L 702.38085,540.06618 L 701.94534,542.67948 L 704.5586,542.67948"
         class="ps03"
         id="path2149" />
      <path
         style="fill:black;fill-rule:nonzero;stroke:none"
         d="M 116.2196,552.26156 L 128.15364,484.75154 L 160.38424,484.75154 C 175.54133,484.75154 187.03977,488.32304 184.68784,501.73794 C 183.46828,508.7067 178.06748,513.75905 173.27647,516.45947 C 180.24523,518.28877 183.03276,524.64775 181.8132,531.87789 C 179.11282,546.94787 166.65611,552.26156 149.14704,552.26156 L 116.2196,552.26156 z M 143.31073,524.03801 L 141.13298,536.49468 L 150.80217,536.49468 C 156.20296,536.49468 160.55842,535.36227 161.42953,530.30988 C 162.47483,524.38646 157.42248,524.03801 150.36661,524.03801 L 143.31073,524.03801 z M 147.49196,500.51837 L 145.48844,511.75552 L 154.72211,511.75552 C 159.07756,511.75552 162.64905,509.83911 163.34595,505.83205 C 164.21707,500.60548 159.94868,500.51837 155.24473,500.51837 L 147.49196,500.51837"
         class="ps03"
         id="path2151" />
      <path
         style="fill:black;fill-rule:nonzero;stroke:none"
         d="M 208.38166,528.74191 L 204.20039,552.26156 L 182.16164,552.26156 L 194.00858,484.75154 L 225.89073,484.75154 C 248.36503,484.75154 254.72405,490.84919 252.37208,504.00275 C 250.97834,511.75552 246.3615,518.28877 238.17317,520.46652 C 244.79353,523.07978 248.80059,524.82197 246.44861,538.4111 C 244.88064,547.20921 244.00953,550.17092 246.70995,550.17092 L 246.3615,552.26156 L 223.8872,552.26156 C 223.62586,550.7807 223.80009,546.4252 224.84543,540.41462 C 226.4134,531.61656 225.45517,528.74191 215.17625,528.74191 L 208.38166,528.74191 z M 210.99497,513.93327 L 219.70592,513.93327 C 226.58762,513.93327 230.50756,512.19108 231.37863,507.57424 C 232.16264,502.78323 228.85244,500.51837 223.71298,500.51837 L 213.34694,500.51837 L 210.99497,513.93327"
         class="ps03"
         id="path2153" />
      <path
         style="fill:black;fill-rule:nonzero;stroke:none"
         d="M 323.71492,518.11455 C 319.70787,541.11152 301.93751,554.00375 281.98936,554.00375 C 260.82174,554.00375 248.97481,540.93729 252.98186,517.94032 C 256.72758,496.77265 273.53975,483.00931 294.53319,483.00931 C 318.57546,483.00931 326.8509,500.34415 323.71492,518.11455 M 275.10771,518.11455 C 273.53975,526.73839 274.32371,537.54002 284.86401,537.54002 C 294.44608,537.54002 299.67265,529.26458 301.58907,518.11455 C 303.24415,508.96803 301.15351,499.21174 291.39721,499.47307 C 281.37963,499.47307 276.58857,509.57777 275.10771,518.11455"
         class="ps03"
         id="path2155" />
      <path
         style="fill:black;fill-rule:nonzero;stroke:none"
         d="M 314.4813,552.26156 L 350.63183,484.75154 L 373.10613,484.75154 L 385.38863,552.26156 L 363.34984,552.26156 L 362.30454,543.37638 L 340.2658,543.37638 L 336.17164,552.26156 L 314.4813,552.26156 z M 358.03615,505.13521 L 346.97323,529.26458 L 360.9108,529.26458 L 358.03615,505.13521 z "
         class="ps03"
         id="path2157" />
      <path
         style="fill:black;fill-rule:nonzero;stroke:none"
         d="M 390.26675,552.26156 L 402.11368,484.75154 L 431.73097,484.75154 C 453.50842,484.75154 465.18113,494.85624 461.26119,517.0692 C 456.81858,542.50526 440.87748,552.26156 419.2743,552.26156 L 390.26675,552.26156 z M 415.09302,536.49468 L 419.79697,536.49468 C 430.07589,536.49468 436.69625,531.09389 438.96107,518.28877 C 441.40015,504.26409 437.48021,500.51837 425.72039,500.51837 L 421.45205,500.51837 L 415.09302,536.49468"
         class="ps03"
         id="path2159" />
      <path
         style="fill:black;fill-rule:nonzero;stroke:none"
         d="M 512.65593,510.536 C 513.17855,503.48013 509.51995,499.47307 502.6383,499.47307 C 494.79842,499.47307 488.96206,506.1805 486.6972,519.15984 C 485.04212,528.6548 485.47768,537.54002 496.71483,537.54002 C 503.85782,537.54002 508.12621,532.57474 510.12973,526.12865 L 531.38451,526.12865 C 526.33212,543.55056 512.04615,554.00375 494.18863,554.00375 C 471.88856,554.00375 460.82563,540.32751 464.65846,518.37588 C 468.49129,496.59843 485.73902,483.00931 504.55471,483.00931 C 525.19971,483.00931 534.86889,493.20116 533.64933,510.536 L 512.65593,510.536"
         class="ps03"
         id="path2161" />
      <path
         style="fill:black;fill-rule:nonzero;stroke:none"
         d="M 605.86329,518.11455 C 601.76912,541.11152 584.08588,554.00375 564.13773,554.00375 C 542.883,554.00375 531.12318,540.93729 535.13023,517.94032 C 538.87595,496.77265 555.601,483.00931 576.59445,483.00931 C 600.72383,483.00931 608.99927,500.34415 605.86329,518.11455 M 557.25608,518.11455 C 555.68812,526.73839 556.38496,537.54002 567.01238,537.54002 C 576.59445,537.54002 581.73391,529.26458 583.73744,518.11455 C 585.39251,508.96803 583.30188,499.21174 573.54558,499.47307 C 563.528,499.47307 558.73694,509.57777 557.25608,518.11455"
         class="ps03"
         id="path2163" />
      <path
         style="fill:black;fill-rule:nonzero;stroke:none"
         d="M 604.99222,552.26156 L 616.83915,484.75154 L 643.58179,484.75154 L 648.0244,526.8255 L 667.36277,484.75154 L 694.10546,484.75154 L 682.17141,552.26156 L 662.31038,552.26156 L 665.96903,531.61656 L 668.05962,521.16337 L 671.36982,508.96803 L 671.1956,508.96803 L 651.24745,552.26156 L 635.91613,552.26156 L 631.29935,508.96803 L 631.03801,508.96803 L 630.254,518.89851 L 628.86026,529.3517 L 624.85321,552.26156 L 604.99222,552.26156 z "
         class="ps03"
         id="path2165" />
    </g>
  </g>
</svg>
