<?xml version="1.0" encoding="UTF-8" standalone="no"?>
<!-- Created with Inkscape (http://www.inkscape.org/) -->

<svg
   width="71.138855mm"
   height="16.731977mm"
   viewBox="0 0 71.138855 16.731977"
   version="1.1"
   id="svg3636"
   xml:space="preserve"
   xmlns="http://www.w3.org/2000/svg"
   xmlns:svg="http://www.w3.org/2000/svg"><defs
     id="defs3633" /><g
     id="layer1"
     transform="translate(-31.86819,-69.184572)"><path
       style="fill:#b20d00;fill-opacity:1;stroke-width:1"
       d="m 33.808677,81.265989 c -0.450907,-0.218252 -1.115207,-1.051848 -1.476222,-1.852437 -0.622014,-1.379381 -0.621194,-1.547778 0.01567,-3.215372 0.369632,-0.967867 1.25479,-2.271403 1.967018,-2.896748 1.020872,-0.896337 1.654126,-1.13699 2.991876,-1.13699 1.36148,0 1.813636,0.178139 2.287392,0.901181 0.339801,0.518603 0.481546,1.207833 0.333885,1.623513 -0.141124,0.397282 -0.598054,1.101991 -1.015399,1.566018 -0.436557,0.485389 -1.629106,1.038451 -2.8081,1.302298 -1.127109,0.252236 -2.04929,0.650859 -2.04929,0.88583 0,0.23497 0.276032,0.821308 0.613403,1.302974 0.52565,0.750469 0.826224,0.8398 2.101017,0.624425 0.945898,-0.159808 1.487613,-0.104891 1.487613,0.150809 0,0.221177 -0.332501,0.58009 -0.738893,0.797584 -0.40639,0.217493 -1.222922,0.383809 -1.814514,0.369589 -0.591592,-0.01422 -1.444545,-0.204424 -1.895452,-0.422674 z m 2.891538,-5.124473 c 0.692578,-0.582766 1.175318,-1.354194 1.175318,-1.878181 0,-0.489069 -0.214877,-0.966264 -0.477504,-1.060433 -0.262627,-0.09417 -0.792884,-0.0087 -1.178348,0.189916 -0.385465,0.198623 -0.944144,0.943429 -1.24151,1.655125 -0.297366,0.711696 -0.540665,1.471416 -0.540665,1.688265 0,0.216851 0.244663,0.394273 0.543695,0.394273 0.299033,0 1.072589,-0.445034 1.719014,-0.988965 z m 12.774489,5.126214 c -0.44876,-0.217293 -1.007439,-0.815402 -1.24151,-1.329131 -0.23407,-0.513728 -0.425583,-1.447189 -0.425583,-2.074356 0,-0.627167 0.235698,-1.693462 0.523773,-2.369544 0.288075,-0.676082 0.97007,-1.640714 1.515546,-2.143625 0.672428,-0.619957 1.598487,-0.972681 2.876011,-1.095435 1.685478,-0.161953 1.949785,-0.08101 2.505634,0.767321 0.838092,1.399233 0.05312,2.712515 -1.084907,3.631307 -0.538482,0.423569 -1.754629,0.88643 -2.702549,1.028579 -0.956926,0.1435 -1.723492,0.465097 -1.723492,0.723054 0,0.25553 0.276031,0.85869 0.613403,1.340356 0.525649,0.750469 0.826223,0.8398 2.101016,0.624425 0.945899,-0.159808 1.487614,-0.104891 1.487614,0.150809 0,0.221177 -0.332502,0.58009 -0.738893,0.797584 -0.406391,0.217493 -1.222922,0.383809 -1.814514,0.369589 -0.591592,-0.01422 -1.442789,-0.20364 -1.891549,-0.420933 z m 2.887634,-5.126214 c 0.698987,-0.588159 1.175319,-1.35311 1.175319,-1.887471 0,-0.494177 -0.168349,-1.00255 -0.374109,-1.129716 -0.205759,-0.127167 -0.736016,-0.03752 -1.178348,0.199204 -0.442333,0.23673 -1.04754,1.012714 -1.344906,1.72441 -0.297365,0.711696 -0.540664,1.471416 -0.540664,1.688265 0,0.216851 0.244663,0.394273 0.543695,0.394273 0.299032,0 1.072588,-0.445034 1.719013,-0.988965 z m -12.958793,4.449319 c 0,-0.454288 0.871452,-1.412246 2.248984,-2.472232 1.23694,-0.951804 2.698152,-2.26436 3.247136,-2.916791 0.548985,-0.652431 1.103251,-1.604975 1.231702,-2.116765 0.135781,-0.540998 0.02112,-1.186485 -0.27391,-1.541974 -0.388427,-0.468026 -0.933552,-0.560982 -2.324033,-0.396301 -1.134836,0.134405 -1.914153,0.05727 -2.076581,-0.205549 -0.143002,-0.231383 0.05398,-0.650283 0.437728,-0.93089 0.383752,-0.280606 1.288645,-0.62105 2.010873,-0.75654 0.871078,-0.163415 1.751855,-0.03714 2.616333,0.375102 0.716755,0.341797 1.466933,1.052121 1.667061,1.578498 0.237029,0.623432 0.225532,1.323245 -0.03298,2.007557 -0.218268,0.57778 -0.858643,1.539121 -1.423056,2.136315 -0.564414,0.597193 -2.041733,1.800502 -3.282932,2.674021 l -2.256725,1.588215 3.116233,0.110949 c 1.713928,0.06102 3.116232,0.241519 3.116232,0.401103 0,0.159585 -0.206281,0.496435 -0.458403,0.748557 -0.290815,0.290815 -1.757214,0.458404 -4.011032,0.458404 -3.26231,0 -3.552628,-0.06061 -3.552628,-0.741679 z"
       id="path5673" /><path
       d="m 80.659868,84.20374 c 0,-0.503398 1.354686,-0.579244 10.345914,-0.579244 8.10686,0 10.311508,0.103341 10.186928,0.477504 -0.12075,0.362636 -2.609555,0.501978 -10.345922,0.579244 -8.89387,0.08883 -10.18692,0.02822 -10.18692,-0.477504 z"
       style="fill:#b20c00;fill-opacity:0.972549;stroke-width:1"
       id="path6573" /><path
       style="fill:#474747;fill-opacity:1;stroke-width:1"
       d="m 74.165819,85.404863 c 0,-0.281428 0.422984,-0.704412 0.939964,-0.939963 0.677326,-0.30861 1.105513,-0.997747 1.532455,-2.466378 0.325872,-1.120957 0.813762,-3.577321 1.084205,-5.458588 0.472836,-3.289178 0.531324,-3.425125 1.523569,-3.541359 0.567519,-0.06648 1.031855,0.02675 1.031855,0.207175 0,0.180427 -0.423576,2.533259 -0.941282,5.228516 -0.517702,2.695257 -1.2143,5.317148 -1.547991,5.826424 -0.333687,0.509275 -1.038662,1.090184 -1.566605,1.290908 -0.527944,0.200724 -1.206557,0.364952 -1.508034,0.364952 -0.301473,0 -0.548136,-0.230259 -0.548136,-0.511687 z m -4.062953,-3.75513 c -0.448759,-0.217293 -1.007439,-0.815402 -1.241509,-1.329131 -0.234071,-0.513728 -0.425583,-1.405243 -0.425583,-1.981144 0,-0.575901 0.386778,-1.814097 0.859507,-2.751547 0.550555,-1.091785 1.340097,-1.951941 2.196517,-2.392964 0.901455,-0.464214 1.833515,-0.627608 2.861119,-0.501568 0.937813,0.115028 1.782769,0.506374 2.196517,1.017331 0.373419,0.461152 0.672409,1.464294 0.672409,2.255999 0,0.784085 -0.396144,2.183227 -0.880326,3.109205 -0.547441,1.046969 -1.378022,1.936156 -2.196517,2.351507 -0.723903,0.367351 -1.745945,0.656544 -2.271199,0.642651 -0.525254,-0.01389 -1.322173,-0.203046 -1.770935,-0.420339 z m 3.591374,-1.558882 c 0.444186,-0.472813 0.995076,-1.696171 1.224202,-2.718572 0.229125,-1.022402 0.31396,-2.182268 0.188526,-2.57748 -0.125435,-0.395212 -0.655877,-0.825941 -1.178759,-0.957176 -0.684419,-0.171778 -1.20426,-3.82e-4 -1.855992,0.61187 -0.49791,0.467764 -1.098915,1.657586 -1.335562,2.64405 -0.300262,1.251626 -0.311749,2.105307 -0.03801,2.825269 0.272609,0.717048 0.666076,1.031699 1.290116,1.031699 0.493831,0 1.261298,-0.386847 1.705479,-0.85966 z m 7.868716,1.558882 c -0.448758,-0.217293 -1.007437,-0.815402 -1.24151,-1.329131 -0.234068,-0.513728 -0.425582,-1.352238 -0.425582,-1.863355 0,-0.511116 0.277403,-1.622603 0.616454,-2.469971 0.33905,-0.847367 1.120655,-1.899691 1.736903,-2.338498 0.616243,-0.438806 1.780046,-0.886299 2.586221,-0.99443 1.16103,-0.155727 1.637899,-0.02447 2.293672,0.631294 0.57221,0.57221 0.749395,1.075223 0.573719,1.628727 -0.193389,0.609317 0.073,0.473661 1.113913,-0.567256 0.998648,-0.998647 1.828358,-1.437108 3.072535,-1.623684 0.937446,-0.140579 1.892156,-0.139587 2.121579,0.0022 0.245995,0.152032 0.655323,-0.312276 0.997704,-1.131713 0.400538,-0.958618 0.783053,-1.347931 1.233507,-1.255425 0.458591,0.09418 0.620197,0.442722 0.542968,1.17102 -0.08745,0.824641 0.0494,1.036918 0.668505,1.036918 0.437302,0 0.778465,0.251121 0.778465,0.573004 0,0.351961 -0.357696,0.573005 -0.927244,0.573005 -0.858773,0 -0.964259,0.218616 -1.428519,2.960523 -0.275703,1.628288 -0.503071,3.130301 -0.505268,3.337806 -0.0023,0.207506 0.84247,0.498365 1.877029,0.646352 1.063802,0.15217 2.184057,0.106891 2.578521,-0.104221 0.383632,-0.205309 0.697502,-0.688201 0.697502,-1.073093 0,-0.393235 -0.669387,-1.14278 -1.528015,-1.710993 -1.18058,-0.781271 -1.528012,-1.25539 -1.528012,-2.08519 0,-0.653352 0.376235,-1.427456 0.960604,-1.976441 0.719166,-0.675622 1.415256,-0.908386 2.769523,-0.926095 1.36377,-0.01784 1.80892,0.117352 1.80892,0.549349 0,0.396871 -0.32246,0.539276 -1.04904,0.463276 -0.57697,-0.06035 -1.3935,0.07462 -1.81451,0.299942 -0.421019,0.225319 -0.765482,0.733406 -0.765482,1.129081 0,0.409878 0.574239,1.074312 1.334652,1.544267 0.73405,0.453672 1.48823,1.099295 1.67594,1.434718 0.20481,0.365977 0.18919,1.046177 -0.0391,1.700925 -0.20919,0.600086 -0.86165,1.339957 -1.44991,1.644158 -0.62426,0.322814 -2.078195,0.542969 -3.492118,0.528776 -1.362884,-0.01368 -2.78319,-0.254502 -3.247022,-0.550552 -0.711824,-0.454335 -0.892451,-0.444329 -1.321986,0.07323 -0.368694,0.444249 -0.943238,0.549227 -2.218949,0.405435 -1.262287,-0.142278 -1.965211,-0.477442 -2.63542,-1.256605 -0.764938,-0.889296 -0.885223,-1.361947 -0.73759,-2.898372 0.133728,-1.391756 0.07456,-1.701233 -0.244627,-1.279471 -0.231563,0.305978 -1.060131,0.819778 -1.841262,1.141777 -0.781135,0.321999 -1.769568,0.585453 -2.196518,0.585453 -0.562698,0 -0.776276,0.249884 -0.776276,0.908233 0,0.499529 0.255969,1.120668 0.568818,1.38031 0.360852,0.299481 1.059172,0.380085 1.910015,0.220466 0.73766,-0.138386 1.341198,-0.1063 1.341198,0.0713 0,0.177601 -0.206282,0.529193 -0.458404,0.781315 -0.252122,0.252122 -1.068654,0.44677 -1.814514,0.43255 -0.745861,-0.01422 -1.723277,-0.20364 -2.172039,-0.420933 z m 12.022166,-2.513736 c 0.210354,-0.997983 0.496447,-2.59421 0.63576,-3.547171 0.237434,-1.624173 0.197534,-1.73567 -0.637311,-1.780791 -0.489835,-0.02647 -1.282717,0.02726 -1.761962,0.119396 -0.479246,0.09214 -1.209185,0.721596 -1.622084,1.398788 -0.429024,0.703631 -0.751343,1.915283 -0.752157,2.827484 -7.64e-4,0.943444 0.244062,1.841718 0.598863,2.196517 0.330157,0.33016 1.175423,0.600291 1.878358,0.600291 1.21637,0 1.296537,-0.0876 1.660533,-1.814514 z m -9.009721,-2.475693 c 0.74164,-0.513852 1.050509,-1.057157 1.050509,-1.847853 0,-0.829683 -0.18078,-1.119997 -0.69742,-1.119997 -0.383576,0 -1.068538,0.395042 -1.522133,0.877872 -0.453594,0.482829 -0.935418,1.431374 -1.07072,2.107877 -0.217688,1.088446 -0.163409,1.20008 0.471629,0.969982 0.394693,-0.143013 1.190356,-0.587559 1.768135,-0.987881 z m -28.793774,4.87883 c -0.09646,-0.09646 0.228178,-2.288202 0.721418,-4.870538 0.49324,-2.582335 0.976541,-5.081934 1.074,-5.554662 0.163543,-0.793261 0.384674,-0.859507 2.869057,-0.859507 1.480521,0 3.010386,0.170472 3.399699,0.378826 0.389314,0.208354 0.815849,0.870576 0.947857,1.471605 0.200249,0.911724 0.395268,1.063101 1.177059,0.913652 0.687847,-0.131491 0.937045,-0.01186 0.937045,0.449846 0,0.540024 0.156933,0.512948 1.109693,-0.191458 0.610331,-0.451237 1.297936,-0.704091 1.528012,-0.561896 0.230076,0.142194 0.418319,0.417985 0.418319,0.612867 0,0.194883 -0.558679,0.587909 -1.24151,0.873392 -0.68283,0.285483 -1.455699,0.93242 -1.717485,1.437638 -0.261787,0.505218 -0.69154,2.035936 -0.955008,3.401597 -0.406931,2.109293 -0.608398,2.501393 -1.338538,2.605089 -0.519172,0.07373 -0.859024,-0.07753 -0.858287,-0.382003 6.88e-4,-0.27724 0.267724,-2.027659 0.59345,-3.88982 0.325726,-1.862162 0.497078,-3.4809 0.380783,-3.597196 -0.116296,-0.116295 -0.211447,0.05725 -0.211447,0.385653 0,0.328404 -0.607636,1.130611 -1.350303,1.782681 -1.074713,0.94361 -1.694898,1.185581 -3.038714,1.185581 -1.655028,0 -1.693012,0.02833 -1.921043,1.432511 -0.127946,0.787881 -0.389903,1.81929 -0.582124,2.292018 -0.192222,0.472729 -0.668332,0.859507 -1.058023,0.859507 -0.38969,0 -0.78745,-0.07892 -0.88391,-0.175383 z m 5.986458,-6.492306 c 0.515704,-0.515704 0.935011,-1.332235 0.931794,-1.814514 -0.0032,-0.482279 -0.132143,-1.074031 -0.286502,-1.315005 -0.154359,-0.240974 -0.624455,-0.475646 -1.044659,-0.521493 -0.420203,-0.04585 -0.970802,-0.06356 -1.223554,-0.03937 -0.252751,0.02419 -0.638571,0.688619 -0.857376,1.4765 -0.218806,0.787881 -0.398787,1.81929 -0.399959,2.292018 -0.0016,0.66679 0.215893,0.859507 0.970241,0.859507 0.534804,0 1.394311,-0.42194 1.910015,-0.937643 z M 78.523297,71.25452 c -0.12273,-0.319827 -0.111816,-0.761637 0.02426,-0.9818 0.136062,-0.220163 0.678953,-0.400296 1.206423,-0.400296 0.776051,0 0.935739,0.163991 0.836961,0.859507 -0.07853,0.552956 -0.42923,0.903124 -0.983283,0.9818 -0.507216,0.07203 -0.952938,-0.116732 -1.084358,-0.459211 z"
       id="path4617" /></g></svg>
