<?xml version="1.0" encoding="utf-8"?><svg version="1.1" id="Layer_1" xmlns="http://www.w3.org/2000/svg" xmlns:xlink="http://www.w3.org/1999/xlink" x="0px" y="0px" viewBox="0 0 122.88 122.88" style="enable-background:new 0 0 122.88 122.88" xml:space="preserve"><style type="text/css">.st0{fill-rule:evenodd;clip-rule:evenodd;} .st1{fill-rule:evenodd;clip-rule:evenodd;fill:#1CE783;}</style><g><path class="st0" d="M27.27,0h68.35c15,0,27.27,12.27,27.27,27.27v68.35c0,15-12.27,27.27-27.27,27.27H27.27 c-15,0-27.27-12.27-27.27-27.27V27.27C0,12.27,12.27,0,27.27,0L27.27,0z"/><path class="st1" d="M37.13,57.8c1.45,1.18,2.18,3.02,2.18,5.52v12.56H32.4V64.24c0-0.51-0.19-0.95-0.57-1.33 c-0.38-0.38-0.83-0.57-1.33-0.57h-4.02c-0.51,0-0.94,0.19-1.31,0.57c-0.36,0.38-0.54,0.83-0.54,1.33v11.64h-6.96V47h6.96v9.41 c0.11-0.04,0.36-0.11,0.76-0.22c0.4-0.11,0.92-0.16,1.58-0.16h4.46C33.77,56.03,35.68,56.62,37.13,57.8L37.13,57.8z M59.05,56.03 h6.96v12.18c0,2.28-0.63,4.13-1.88,5.55c-1.25,1.41-2.95,2.12-5.09,2.12h-6.85c-2.39,0-4.31-0.66-5.74-1.99 c-1.43-1.32-2.15-3.22-2.15-5.68V56.03h6.96v11.64c0,0.51,0.18,0.94,0.54,1.31c0.36,0.36,0.8,0.54,1.31,0.54h4.02 c0.51,0,0.95-0.18,1.33-0.54c0.38-0.36,0.57-0.8,0.57-1.31V56.03L59.05,56.03z M71.28,47h6.96v28.88h-6.96V47L71.28,47z M105.22,56.03v12.18c0,2.28-0.63,4.13-1.88,5.55c-1.25,1.41-2.95,2.12-5.09,2.12h-6.8c-2.43,0-4.36-0.66-5.79-1.99 c-1.43-1.32-2.15-3.22-2.15-5.68V56.03h6.96v11.64c0,0.51,0.18,0.94,0.54,1.31c0.36,0.36,0.8,0.54,1.31,0.54h4.08 c0.51,0,0.94-0.18,1.31-0.54c0.36-0.36,0.54-0.8,0.54-1.31V56.03H105.22L105.22,56.03z"/></g></svg>