<?xml version="1.0" encoding="UTF-8" standalone="no"?>
<!-- Created with Inkscape (http://www.inkscape.org/) -->

<svg
    width="29.555933"
    height="25.580093"
    viewBox="0 0 7.8200073 6.7680665"
    version="1.1"
    id="svg5"
    xml:space="preserve"
    xmlns="http://www.w3.org/2000/svg"
><defs
     id="defs2" /><g
     id="layer1"
     transform="translate(-298.68814,-1884.9195)"><g
       id="g13655"
       transform="matrix(1,0,0,0.99717192,0.81410941,412.72111)"
       style="display:inline"><g
         id="use14087"
         transform="translate(945.3421,1059.5883)"
         style="display:inline;stroke:none"><g
           id="g20394"
           transform="matrix(0.45962179,0,0,0.46092532,-1052.0283,389.60092)"
           style="display:inline;fill:#09411f;fill-opacity:1;stroke:none;stroke-width:1;stroke-miterlimit:4;stroke-dasharray:none"><g
             id="g20388"
             transform="translate(986.50027,-258.37999)"
             style="fill:#09411f;fill-opacity:1;stroke:none;stroke-width:1;stroke-miterlimit:4;stroke-dasharray:none"><path
               d="m -100.13497,330.96147 v 1.12193 h -0.49864 q -1.94001,0 -2.60226,-0.57655 -0.65446,-0.57654 -0.65446,-2.2984 v -1.8621 q 0,-1.17647 -0.42073,-1.62836 -0.41293,-0.45189 -1.5037,-0.45189 h -0.48306 v -1.11415 h 0.48306 q 1.09856,0 1.51149,-0.4441 0.41294,-0.4441 0.41294,-1.61278 v -1.86989 q 0,-1.72186 0.65446,-2.29061 0.66225,-0.57655 2.60226,-0.57655 h 0.49864 v 1.11414 h -0.54539 q -1.09077,0 -1.42579,0.34281 -0.32723,0.33502 -0.32723,1.44138 v 1.93222 q 0,1.22322 -0.35839,1.77639 -0.35061,0.55318 -1.20764,0.74796 0.86482,0.21036 1.21543,0.76354 0.3506,0.55317 0.3506,1.7686 v 1.93222 q 0,1.11415 0.32723,1.44917 0.33502,0.33502 1.42579,0.33502 z"
               id="path20382"
               style="font-size:15.9564px;line-height:1.25;font-family:Consolas;-inkscape-font-specification:Consolas;letter-spacing:0px;word-spacing:0px;display:inline;fill:#09411f;fill-opacity:1;stroke:none;stroke-width:1;stroke-miterlimit:4;stroke-dasharray:none"
               transform="translate(6.3603756e-7,-2.3543876e-5)" /><path
               d="m -95.446645,330.96147 h 0.529802 q 1.098561,0 1.433583,-0.34281 0.335022,-0.34282 0.335022,-1.44138 v -1.93222 q 0,-1.21543 0.350605,-1.7686 0.350604,-0.55318 1.215428,-0.76354 -0.857033,-0.19478 -1.215428,-0.74796 -0.350605,-0.55317 -0.350605,-1.77639 v -1.93222 q 0,-1.09856 -0.335022,-1.44138 -0.335022,-0.34281 -1.433583,-0.34281 h -0.529802 v -1.11414 h 0.483055 q 1.940011,0 2.594473,0.57655 0.654462,0.56875 0.654462,2.29061 v 1.86989 q 0,1.16868 0.412934,1.61278 0.420725,0.4441 1.519286,0.4441 h 0.498638 v 1.11415 h -0.498638 q -1.098561,0 -1.519286,0.45189 -0.412934,0.45189 -0.412934,1.62836 v 1.8621 q 0,1.72186 -0.654462,2.2984 -0.654462,0.57655 -2.594473,0.57655 h -0.483055 z"
               id="path20386"
               style="font-size:15.9564px;line-height:1.25;font-family:Consolas;-inkscape-font-specification:Consolas;letter-spacing:0px;word-spacing:0px;display:inline;fill:#09411f;fill-opacity:1;stroke:none;stroke-width:1;stroke-miterlimit:4;stroke-dasharray:none"
               transform="translate(6.3603756e-7,-2.3543876e-5)" /></g></g></g></g></g></svg>
