<?xml version="1.0" encoding="UTF-8" standalone="no"?>
<!-- Created with Inkscape (http://www.inkscape.org/) -->

<svg
   width="120.26892mm"
   height="19.770767mm"
   viewBox="0 0 120.26892 19.770767"
   version="1.1"
   id="svg8540"
   inkscape:version="1.2 (dc2aedaf03, 2022-05-15)"
   sodipodi:docname="mediakind.svg"
   xml:space="preserve"
   xmlns:inkscape="http://www.inkscape.org/namespaces/inkscape"
   xmlns:sodipodi="http://sodipodi.sourceforge.net/DTD/sodipodi-0.dtd"
   xmlns="http://www.w3.org/2000/svg"
   xmlns:svg="http://www.w3.org/2000/svg"><sodipodi:namedview
     id="namedview8542"
     pagecolor="#ffffff"
     bordercolor="#666666"
     borderopacity="1.0"
     inkscape:showpageshadow="2"
     inkscape:pageopacity="0.0"
     inkscape:pagecheckerboard="0"
     inkscape:deskcolor="#d1d1d1"
     inkscape:document-units="mm"
     showgrid="false"
     inkscape:zoom="2.8284271"
     inkscape:cx="189.32784"
     inkscape:cy="241.30019"
     inkscape:window-width="2560"
     inkscape:window-height="1356"
     inkscape:window-x="-8"
     inkscape:window-y="-8"
     inkscape:window-maximized="1"
     inkscape:current-layer="layer1" /><defs
     id="defs8537" /><g
     inkscape:label="Layer 1"
     inkscape:groupmode="layer"
     id="layer1"
     transform="translate(-44.224107,-47.149092)"><g
       id="g3442"
       transform="translate(37.057233,-5.5658885)"><path
         style="fill:#0054ac;fill-opacity:1;stroke-width:1"
         d="M 8.6021118,72.352311 C 7.8953434,72.224617 7.3128699,71.637758 7.1892378,70.928799 7.1693408,70.814702 7.1668718,70.086273 7.1668718,64.33048 c 0,-5.774929 0.00242,-6.483936 0.02252,-6.599199 0.1257284,-0.72098 0.6862132,-1.285886 1.4146833,-1.425843 0.150809,-0.02897 0.4595339,-0.03334 0.6079095,-0.0086 0.1554916,0.02592 0.3452179,0.08478 0.4787428,0.148507 0.2812403,0.13423 0.1533614,0.01216 3.1608326,3.017229 l 2.811453,2.809205 4.135233,-4.133273 c 2.651049,-2.649793 4.169172,-4.156947 4.229795,-4.199232 0.209207,-0.145926 0.471077,-0.252163 0.727101,-0.294973 0.212126,-0.03547 0.536092,-0.02361 0.727703,0.02664 0.719605,0.188711 1.2412,0.788074 1.323824,1.521202 0.01126,0.0999 0.01453,2.379151 0.01133,7.901764 l -0.0045,7.761374 -0.03092,0.130932 c -0.146725,0.621391 -0.581486,1.106858 -1.165579,1.301519 -0.221349,0.07377 -0.358542,0.09207 -0.628803,0.08387 -0.19463,-0.0059 -0.266997,-0.01435 -0.382526,-0.04463 -0.598437,-0.156883 -1.084502,-0.625883 -1.253673,-1.209661 -0.02038,-0.07033 -0.04474,-0.164606 -0.05414,-0.209498 -0.01286,-0.06143 -0.01828,-1.461969 -0.02193,-5.660494 l -0.0048,-5.578872 -3.2549,3.253551 c -3.480457,3.479013 -3.318718,3.323529 -3.592289,3.45335 -0.390208,0.18517 -0.875937,0.220041 -1.292664,0.0928 -0.154742,-0.04725 -0.379695,-0.161041 -0.516329,-0.26119 -0.08719,-0.06391 -0.675966,-0.642587 -2.017994,-1.983396 l -1.894881,-1.893159 -8.8e-5,4.20425 c -1.02e-4,4.652301 0.0062,4.342255 -0.09498,4.645654 -0.200641,0.601385 -0.7076051,1.044777 -1.3347935,1.167413 -0.1719004,0.03361 -0.4971504,0.03585 -0.6700717,0.0046 z m 26.8024912,0.01415 C 33.77441,72.254887 32.397596,71.753848 31.287509,70.868206 31.033272,70.665373 30.550503,70.182852 30.350292,69.931469 29.823691,69.270277 29.412355,68.474209 29.186785,67.6797 28.988226,66.980335 28.90192,66.318221 28.90192,65.49432 c 0,-0.683704 0.05944,-1.237936 0.196959,-1.836389 0.261111,-1.136326 0.836205,-2.227787 1.623304,-3.080846 0.694996,-0.753237 1.607623,-1.35303 2.645032,-1.73836 0.940312,-0.349264 2.080595,-0.506497 3.215778,-0.443421 0.860966,0.04784 1.557869,0.191164 2.240397,0.46076 1.533273,0.605635 2.494354,1.607995 2.844609,2.966785 0.07467,0.289694 0.109385,0.55096 0.118921,0.895104 0.01991,0.718613 -0.101973,1.33621 -0.374226,1.896211 -0.489733,1.007337 -1.618736,1.703391 -3.39672,2.094148 -0.770385,0.169311 -1.562994,0.26239 -2.684112,0.315205 -0.470222,0.02215 -1.969581,0.02217 -2.464371,4.4e-5 -0.2072,-0.0093 -0.379893,-0.01369 -0.383762,-0.0098 -0.01327,0.01327 0.100055,0.364577 0.169435,0.525236 0.276823,0.641029 0.810222,1.187399 1.476699,1.51261 0.44539,0.217329 0.919848,0.344281 1.580248,0.422828 0.263736,0.03137 1.069675,0.04424 1.368169,0.02186 0.907807,-0.06809 1.723531,-0.301757 2.645814,-0.757905 0.211336,-0.104524 0.388805,-0.184889 0.394372,-0.178587 0.03431,0.03884 1.250081,2.382005 1.240639,2.391107 -0.02903,0.028 -0.373234,0.228231 -0.644471,0.374912 -0.677627,0.36645 -1.403179,0.614229 -2.388702,0.81575 -0.861041,0.176067 -1.286259,0.219873 -2.193928,0.226017 -0.356063,0.0024 -0.683394,0.0019 -0.727401,-0.0011 z m -0.552826,-7.759802 c 0.875018,-0.02827 1.392711,-0.0893 1.973413,-0.232651 0.893959,-0.220676 1.414689,-0.531641 1.588033,-0.948329 0.210164,-0.505193 0.156012,-1.125741 -0.13349,-1.52972 -0.297881,-0.415671 -0.904924,-0.7088 -1.69674,-0.819323 -0.254298,-0.03549 -0.865276,-0.03554 -1.120198,-8.7e-5 -0.518188,0.07207 -0.938213,0.214456 -1.346512,0.456468 -0.827532,0.490504 -1.401582,1.288309 -1.672678,2.324654 -0.06303,0.240951 -0.109242,0.501224 -0.112986,0.636346 l -0.0029,0.105599 0.312782,0.0077 c 0.575195,0.01418 1.76278,0.01382 2.211301,-6.68e-4 z m 14.984474,7.752301 c -0.247491,-0.01846 -0.617356,-0.06722 -0.872882,-0.115075 -1.524982,-0.285608 -2.959332,-1.086139 -3.934741,-2.196032 -0.887282,-1.009614 -1.461169,-2.302699 -1.636751,-3.687926 -0.08631,-0.680938 -0.07491,-1.524686 0.02996,-2.217769 0.171971,-1.136536 0.620382,-2.223898 1.2902,-3.128632 0.885154,-1.195592 2.153111,-2.045266 3.604858,-2.41566 0.872216,-0.222535 1.897065,-0.275658 2.792815,-0.144768 0.874097,0.127727 1.614047,0.414838 2.369524,0.919406 0.272671,0.182112 0.611353,0.452051 0.742336,0.591664 0.0235,0.02505 0.04805,0.04554 0.05456,0.04554 0.0065,0 0.01187,-1.333872 0.01191,-2.964161 1.45e-4,-3.254346 -0.0037,-3.109151 0.08768,-3.383195 0.160701,-0.482122 0.538426,-0.787633 1.11245,-0.89977 0.396977,-0.07755 0.930046,-0.05916 1.347259,0.04649 0.139856,0.03541 0.494304,0.148894 0.64256,0.205724 l 0.113121,0.04336 -0.0051,6.178074 c -0.0038,4.598941 -0.0095,6.226414 -0.02228,6.367198 -0.05333,0.586822 -0.109093,0.987727 -0.191554,1.377156 -0.283417,1.338464 -0.898374,2.543425 -1.745989,3.421135 -1.12591,1.165885 -2.641185,1.823035 -4.516988,1.958942 -0.238961,0.01731 -1.032202,0.01625 -1.272953,-0.0017 z m 1.242907,-3.059312 c 0.613144,-0.08519 1.112057,-0.268471 1.58619,-0.582685 0.876432,-0.580824 1.449745,-1.578755 1.585812,-2.760321 0.104783,-0.909911 -0.03535,-1.747791 -0.422826,-2.528143 -0.551318,-1.11032 -1.486413,-1.795121 -2.711856,-1.985981 -0.204928,-0.03192 -0.743099,-0.04478 -0.967445,-0.02313 -0.482917,0.04661 -0.848319,0.146556 -1.25333,0.342802 -0.378483,0.183391 -0.657971,0.376246 -0.946719,0.653261 -0.297225,0.285148 -0.521172,0.585416 -0.701297,0.940305 -0.537334,1.058671 -0.610661,2.470913 -0.187333,3.607912 0.331286,0.889786 0.955381,1.580466 1.808086,2.00099 0.40621,0.200329 0.822281,0.31077 1.360608,0.36116 0.133682,0.01251 0.696366,-0.0048 0.85011,-0.02617 z m 19.757178,3.059967 c -1.179549,-0.05878 -2.116768,-0.222989 -2.936454,-0.51451 -1.191746,-0.423842 -1.992882,-1.050155 -2.409043,-1.88334 -0.187274,-0.374938 -0.324811,-0.867895 -0.387967,-1.390537 -0.02956,-0.244574 -0.03342,-0.838038 -0.0073,-1.112924 0.08659,-0.909653 0.338867,-1.603684 0.788374,-2.168895 0.134898,-0.169622 0.440807,-0.46249 0.621643,-0.595147 0.800199,-0.586998 1.920585,-0.937561 3.414178,-1.068278 0.518596,-0.04539 0.858992,-0.05771 1.578461,-0.05715 0.917622,7.12e-4 1.569995,0.03162 2.55978,0.121278 0.171661,0.01555 0.314993,0.02539 0.318513,0.02187 0.01266,-0.01266 -0.02923,-0.367127 -0.06384,-0.540195 -0.09793,-0.489713 -0.299929,-0.879477 -0.624976,-1.205935 -0.563989,-0.566438 -1.487407,-0.813401 -3.040539,-0.813178 -0.549252,7.3e-5 -0.775873,0.01261 -1.185664,0.06555 -0.507026,0.06551 -0.810723,0.144517 -1.294775,0.336846 -0.47129,0.187258 -0.736407,0.323002 -0.919037,0.47056 l -0.100584,0.08127 -0.103764,-0.08479 c -0.202018,-0.165073 -0.508545,-0.550337 -0.623321,-0.783434 -0.168041,-0.34127 -0.211698,-0.815491 -0.108454,-1.178049 0.04671,-0.164027 0.171423,-0.422937 0.260454,-0.540714 0.268807,-0.355601 0.773508,-0.653901 1.420563,-0.839614 0.728596,-0.209116 1.487855,-0.291372 2.690952,-0.291533 0.976541,-1.31e-4 1.62394,0.05445 2.4077,0.202969 1.46532,0.27768 2.603812,0.855717 3.36421,1.708082 0.604635,0.677761 0.996343,1.524628 1.159311,2.506411 0.09315,0.561172 0.08679,0.222054 0.09169,4.888478 0.0025,2.334413 0.0015,4.244388 -0.0022,4.244388 -0.0037,0 -0.05127,0.0094 -0.105805,0.02082 -0.671495,0.141032 -2.94578,0.342014 -4.5363,0.40088 -0.452025,0.01673 -1.881585,0.01597 -2.225849,-0.0012 z m 2.240397,-2.54349 c 0.350242,-0.02582 0.916991,-0.09373 1.240219,-0.148617 l 0.09093,-0.01544 V 67.9523 c 0,-0.934872 -0.0054,-1.703106 -0.01201,-1.707187 -0.01693,-0.01046 -0.838075,-0.134274 -1.013631,-0.152833 -0.602787,-0.06372 -1.751365,-0.09264 -2.349507,-0.05915 -1.380799,0.07731 -2.142973,0.417044 -2.459084,1.096109 -0.120257,0.258337 -0.165113,0.489938 -0.165166,0.852789 0,0.304567 0.02673,0.470221 0.113228,0.700495 0.06536,0.174 0.127328,0.272244 0.261981,0.41532 0.397571,0.422445 1.118682,0.652565 2.292685,0.731639 0.246096,0.01657 1.728565,0.0067 2.000355,-0.01336 z m 46.713727,2.550763 c -0.032,-0.003 -0.14002,-0.01248 -0.24004,-0.02102 -0.91206,-0.07784 -1.75709,-0.313161 -2.58227,-0.719093 -1.3844,-0.681024 -2.40004,-1.689363 -3.06304,-3.041 -0.4954,-1.009953 -0.72739,-2.038878 -0.7265,-3.22214 9.2e-4,-1.218045 0.23627,-2.264118 0.74142,-3.295377 0.76264,-1.556934 2.03254,-2.703228 3.64042,-3.286061 1.15192,-0.417558 2.54449,-0.514455 3.77418,-0.262616 0.20936,0.04288 0.5603,0.141668 0.7462,0.210058 0.67197,0.247219 1.42818,0.708353 1.91605,1.168408 0.0651,0.06142 0.12227,0.111664 0.12699,0.111664 0.005,0 0.0106,-1.363332 0.0131,-3.029627 l 0.004,-3.029627 0.031,-0.124586 c 0.12781,-0.51423 0.42741,-0.839629 0.92304,-1.002501 0.42198,-0.138672 1.07081,-0.144525 1.5851,-0.0143 0.13986,0.03541 0.49431,0.148895 0.64256,0.205724 l 0.11312,0.04336 -0.005,6.185348 c -0.004,4.635588 -0.009,6.232734 -0.0224,6.374473 -0.0881,0.960762 -0.2005,1.549686 -0.4236,2.218574 -0.6844,2.051964 -2.0855,3.488441 -4.0377,4.13965 -0.54116,0.180518 -1.06874,0.292011 -1.72394,0.364325 -0.19815,0.02187 -1.27153,0.04161 -1.43299,0.02636 z m 1.1338,-3.06724 c 0.83617,-0.116185 1.51169,-0.434061 2.07215,-0.975083 0.45486,-0.439086 0.81542,-1.084773 0.99146,-1.775513 0.23444,-0.919931 0.17795,-1.924134 -0.15592,-2.771165 -0.4425,-1.12266 -1.25054,-1.888465 -2.34153,-2.219161 -0.5271,-0.159771 -1.21796,-0.198203 -1.80179,-0.100232 -0.56475,0.09477 -1.10558,0.33029 -1.58876,0.691872 -0.19005,0.142229 -0.54136,0.493461 -0.6773,0.677163 -0.56411,0.762283 -0.83533,1.735303 -0.78076,2.800964 0.0694,1.35499 0.6409,2.423514 1.65711,3.098216 0.52727,0.350069 1.06945,0.533048 1.77523,0.599112 0.13368,0.01251 0.69637,-0.0048 0.85011,-0.02617 z m -32.068747,2.871529 c -0.26387,-0.0331 -0.563684,-0.14825 -0.797839,-0.306423 -0.156491,-0.105712 -7.816936,-7.761335 -7.932063,-7.927071 -0.270122,-0.388864 -0.381854,-0.850242 -0.313556,-1.294774 0.01168,-0.07601 0.03473,-0.187306 0.05122,-0.247317 0.03878,-0.141102 0.182521,-0.430192 0.278493,-0.560099 0.09113,-0.123347 7.719841,-7.756748 7.846697,-7.851515 0.285904,-0.213584 0.595778,-0.332302 0.938348,-0.359497 0.332337,-0.02638 0.632288,0.02956 0.9238,0.172289 0.507828,0.248643 0.84338,0.680062 0.962522,1.237519 0.03689,0.172611 0.03653,0.540999 -7.12e-4,0.712853 -0.04819,0.222437 -0.135527,0.429195 -0.267304,0.63284 -0.05131,0.07928 -0.774167,0.810589 -3.264351,3.30248 -1.759146,1.760354 -3.19845,3.207121 -3.19845,3.215037 0,0.0079 1.436199,1.451409 3.191556,3.207763 3.354065,3.355974 3.258596,3.256922 3.389359,3.516587 0.235513,0.467683 0.242552,1.065882 0.01811,1.539675 -0.24341,0.513845 -0.71711,0.884692 -1.262119,0.988077 -0.151846,0.02881 -0.423267,0.03919 -0.563715,0.02158 z M 59.671009,66.058059 c 1.89e-4,-3.880294 0.0054,-6.003957 0.01477,-6.070166 0.07053,-0.496081 0.30636,-0.836835 0.719621,-1.039795 0.269807,-0.132507 0.525072,-0.1877 0.9238,-0.199741 0.29437,-0.0089 0.531194,0.0082 0.760878,0.05485 0.168317,0.0342 0.572589,0.154877 0.76302,0.227767 l 0.134578,0.05151 v 6.471951 6.471951 H 61.3292 59.670725 l 2.91e-4,-5.968329 z m 33.256514,0.01642 c 0,-6.567491 -0.0065,-6.103273 0.08998,-6.395278 0.159416,-0.48233 0.5551,-0.784899 1.177279,-0.900234 0.06714,-0.01245 0.247167,-0.02628 0.400053,-0.03074 0.300307,-0.0088 0.514011,0.0069 0.752336,0.05515 0.166445,0.0337 0.551898,0.147883 0.76408,0.22635 l 0.14777,0.05465 v 6.471009 6.471009 h -1.665749 -1.66575 z m 5.411868,1.772082 c 0,-3.675287 0.0027,-4.208698 0.0227,-4.418965 0.08006,-0.84344 0.316354,-1.575133 0.731027,-2.26366 0.216865,-0.360083 0.425818,-0.629556 0.730038,-0.941474 0.440954,-0.452113 0.877804,-0.770056 1.469484,-1.06949 0.82939,-0.419735 1.67753,-0.647452 2.77868,-0.746047 0.26128,-0.0234 1.17195,-0.0236 1.44025,-3.29e-4 1.05655,0.09165 1.94203,0.320852 2.72901,0.706379 0.99108,0.485512 1.73237,1.151393 2.26154,2.031492 0.13039,0.216866 0.33473,0.643647 0.41432,0.865324 0.16118,0.448987 0.2458,0.83216 0.31489,1.42599 0.0124,0.10636 0.0184,1.280952 0.0222,4.368046 l 0.005,4.222566 h -1.66617 -1.66618 V 68.29846 c 0,-2.427427 -0.005,-3.798984 -0.0151,-3.931605 -0.0711,-0.961966 -0.35832,-1.682863 -0.86733,-2.176943 -0.3929,-0.381327 -0.89614,-0.608658 -1.59072,-0.718564 -0.20588,-0.03258 -0.86618,-0.04569 -1.11686,-0.02218 -1.3914,0.130487 -2.2256,0.823557 -2.53999,2.110276 -0.0385,0.157499 -0.0826,0.412897 -0.11308,0.654661 -0.013,0.103242 -0.0188,1.108934 -0.0227,3.975249 l -0.005,3.837043 h -1.658008 -1.65801 z"
         id="path304"
         sodipodi:nodetypes="sssssssscsssssscssscssccssssscscssscssssssssssssssccssscsssssscccsssssssccsccsssssssssssccssscscssssscsssssssssssccssscsssssssssssscssssssssscscsccsscssssscsssssccssssssssscccssscccsssccsssssssssssssssssssssssssssssssssscssssccccccsscscsscccccsscsssssssssccccsccssssccccs" /><path
         d="m 80.986189,57.158938 c -0.702283,-0.0814 -1.304455,-0.61831 -1.47104,-1.31151 -0.177172,-0.73727 0.09495,-1.4722 0.703316,-1.8995 0.595053,-0.41796 1.476324,-0.40793 2.054752,0.0234 0.1442,0.10752 0.341978,0.3129 0.431672,0.44825 0.196938,0.2972 0.287562,0.6102 0.287431,0.99274 -1.74e-4,0.51849 -0.18098,0.93679 -0.55858,1.29234 -0.385243,0.36274 -0.884877,0.51954 -1.447551,0.45429 z"
         style="fill:#e30047;fill-opacity:1;stroke-width:1"
         id="path3245" /><path
         d="m 80.043993,72.467409 c -0.06991,-0.0253 -0.157138,-0.10307 -0.194971,-0.17384 l -0.03252,-0.0608 v -2.36405 -2.36406 l 0.0314,-0.0582 c 0.08582,-0.15903 0.263448,-0.23051 0.448685,-0.18054 0.05014,0.0135 0.222882,0.18 1.24909,1.20377 0.911229,0.90907 1.197839,1.20332 1.220454,1.25301 0.03429,0.0753 0.03923,0.18585 0.01207,0.26967 -0.01552,0.0479 -0.229263,0.26913 -1.206594,1.249 -0.814585,0.81669 -1.206011,1.19937 -1.245921,1.21807 -0.06721,0.0315 -0.205875,0.0354 -0.281692,0.008 z"
         style="fill:#00ffff;fill-opacity:1;stroke-width:1"
         id="path3274" /></g></g></svg>
