<?xml version="1.0" encoding="UTF-8" standalone="no"?>
<svg
   xmlns:dc="http://purl.org/dc/elements/1.1/"
   xmlns:cc="http://creativecommons.org/ns#"
   xmlns:rdf="http://www.w3.org/1999/02/22-rdf-syntax-ns#"
   xmlns:svg="http://www.w3.org/2000/svg"
   xmlns="http://www.w3.org/2000/svg"
   xmlns:sodipodi="http://sodipodi.sourceforge.net/DTD/sodipodi-0.dtd"
   xmlns:inkscape="http://www.inkscape.org/namespaces/inkscape"
   width="1024"
   height="560"
   viewBox="0 0 270.93333 148.16667"
   version="1.1"
   id="svg8"
   inkscape:version="1.0.1 (3bc2e813f5, 2020-09-07)"
   sodipodi:docname="security-green.svg"
   inkscape:export-filename="C:\Users\esidsen\twsent\djongo\product\art\landing_final\creations\security-green.png"
   inkscape:export-xdpi="96"
   inkscape:export-ydpi="96">
  <defs
     id="defs2" />
  <sodipodi:namedview
     id="base"
     pagecolor="#ffffff"
     bordercolor="#666666"
     borderopacity="1.0"
     inkscape:pageopacity="0.0"
     inkscape:pageshadow="2"
     inkscape:zoom="0.9899495"
     inkscape:cx="446.08866"
     inkscape:cy="350.48183"
     inkscape:document-units="px"
     inkscape:current-layer="layer1"
     showgrid="false"
     inkscape:snap-global="true"
     inkscape:snap-bbox="false"
     inkscape:object-paths="false"
     inkscape:snap-nodes="true"
     inkscape:snap-smooth-nodes="true"
     inkscape:window-width="2560"
     inkscape:window-height="1356"
     inkscape:window-x="1912"
     inkscape:window-y="-8"
     inkscape:window-maximized="1"
     inkscape:document-rotation="0"
     units="px" />
  <metadata
     id="metadata5">
    <rdf:RDF>
      <cc:Work
         rdf:about="">
        <dc:format>image/svg+xml</dc:format>
        <dc:type
           rdf:resource="http://purl.org/dc/dcmitype/StillImage" />
        <dc:title></dc:title>
      </cc:Work>
    </rdf:RDF>
  </metadata>
  <g
     inkscape:label="Layer 1"
     inkscape:groupmode="layer"
     id="layer1">
    <g
       id="g1522"
       transform="matrix(0.9796178,0,0,0.9796178,2.7611024,1.509977)"
       inkscape:export-filename="C:\Users\esidsen\twsent\djongo\product\art\landing_final\creations\security.png"
       inkscape:export-xdpi="96"
       inkscape:export-ydpi="96">
      <path
         style="fill:none;fill-opacity:1;stroke:#09411f;stroke-width:3.24105995;stroke-linecap:butt;stroke-linejoin:miter;stroke-miterlimit:4;stroke-dasharray:none;stroke-opacity:1"
         d="m 83.550197,89.697627 c 0,-19.401511 0,-55.643084 0,-55.643084 20.297773,0 38.657663,-8.2241 51.916463,-21.493132 13.25884,13.269032 31.61871,21.493132 51.91649,21.493132 0,0 -1e-5,34.585923 -1e-5,55.643084 0,21.057173 -51.91648,46.453973 -51.91648,46.453973 0,0 -51.916463,-27.05247 -51.916463,-46.453973 z"
         id="circle892"
         sodipodi:nodetypes="zccczcz" />
      <g
         id="g936"
         transform="matrix(7.0101525,0,0,7.0101525,-384.79616,-763.41706)">
        <rect
           style="fill:#09411f;fill-opacity:1;stroke:#ffffff;stroke-width:0.264583;stroke-linecap:butt;stroke-linejoin:miter;stroke-miterlimit:4;stroke-dasharray:none;stroke-opacity:1"
           id="rect912"
           width="3.96875"
           height="3.96875"
           x="72.231247"
           y="118.85198" />
        <path
           style="fill:none;stroke:#09411f;stroke-width:0.46233801;stroke-linecap:butt;stroke-linejoin:miter;stroke-miterlimit:4;stroke-dasharray:none;stroke-opacity:1"
           d="m 73.223438,118.82836 v -1.45818 c 0,-0.19939 0.116502,-1.11934 0.992187,-1.11934 0.875685,0 0.992188,0.92863 0.992188,1.12734 v 1.45836"
           id="path920"
           sodipodi:nodetypes="cszsc"
           inkscape:export-filename="C:\Users\esidsen\twsent\djongo\product\art\landing_final\creations\security-green.png"
           inkscape:export-xdpi="96"
           inkscape:export-ydpi="96" />
        <path
           id="path924"
           style="fill:#ffffff;fill-opacity:1;stroke:none;stroke-width:0.529167;stroke-linecap:butt;stroke-linejoin:miter;stroke-miterlimit:4;stroke-dasharray:none;stroke-opacity:1"
           d="m 74.215624,120.39169 a 0.38978795,0.38978795 0 0 0 -0.389641,0.39015 0.38978795,0.38978795 0 0 0 0.276471,0.37259 l -0.237196,0.94413 0.701249,-5.2e-4 -0.237713,-0.94361 a 0.38978795,0.38978795 0 0 0 0.276471,-0.37259 0.38978795,0.38978795 0 0 0 -0.389641,-0.39015 z" />
      </g>
    </g>
  </g>
</svg>
