<?xml version="1.0" encoding="UTF-8" standalone="no"?>
<!-- Created with Inkscape (http://www.inkscape.org/) -->

<svg
   width="71.006134mm"
   height="51.762836mm"
   viewBox="0 0 71.006134 51.762836"
   version="1.1"
   id="svg7834"
   xml:space="preserve"
   xmlns="http://www.w3.org/2000/svg"
   xmlns:svg="http://www.w3.org/2000/svg"><defs
     id="defs7831" /><g
     id="layer1"
     transform="translate(-69.441905,-103.66004)"><g
       id="g14968"
       transform="matrix(4.890969,0,0,4.890969,-412.28521,-563.36053)"
       style="stroke-width:0.204458"><path
         d="m 98.493185,146.58206 c 0,-0.15518 0.231098,-0.28215 0.513552,-0.28215 0.80111,0 0.870194,-0.42845 0.145635,-0.9032 -0.362553,-0.23756 -0.659187,-0.65928 -0.659187,-0.93716 0,-0.59329 0.980017,-0.98963 1.402467,-0.56718 l 0.290868,0.29087 h -0.582085 c -0.733697,0 -0.753781,0.55923 -0.03618,1.00738 0.34234,0.2138 0.515005,0.55818 0.463025,0.92354 l -0.08288,0.58262 -0.727604,0.0837 c -0.400182,0.046 -0.727604,-0.0433 -0.727604,-0.19844 z m 2.434165,-0.0705 c -0.38245,-0.38245 -0.42828,-2.8575 -0.0529,-2.8575 0.14552,0 0.26458,0.59532 0.26458,1.32292 v 1.32292 h 0.52917 0.52916 v -1.17501 c 0,-0.64626 0.11907,-1.2486 0.26459,-1.33854 0.38442,-0.23758 0.33441,2.33788 -0.0529,2.72521 -0.17462,0.17463 -0.508,0.3175 -0.74083,0.3175 -0.23284,0 -0.56621,-0.14287 -0.74084,-0.3175 z m 2.16411,-0.14552 c 0.0748,-0.25466 0.21514,-0.9095 0.31186,-1.45521 0.21611,-1.2194 0.48502,-1.26179 0.83924,-0.13229 l 0.26967,0.8599 0.33064,-0.87994 c 0.40918,-1.08897 0.69359,-0.83143 0.94028,0.85147 l 0.18975,1.29444 -0.30027,-0.18558 c -0.16515,-0.10207 -0.30999,-0.50598 -0.32186,-0.89757 l -0.0216,-0.71199 -0.41061,0.92604 -0.41061,0.92604 -0.31666,-0.91903 -0.31666,-0.91903 -0.17057,0.85289 c -0.0938,0.46908 -0.30064,0.85288 -0.45961,0.85288 -0.15896,0 -0.22782,-0.20836 -0.15301,-0.46302 z m 3.18194,0.0964 c -0.0774,-0.20164 -0.1034,-0.88625 -0.0578,-1.52136 l 0.0828,-1.15475 0.85989,-0.0829 c 0.48301,-0.0466 0.8599,0.0404 0.8599,0.19843 0,0.15474 -0.2311,0.28135 -0.51355,0.28135 -0.73523,0 -0.96741,0.53738 -0.30682,0.71013 0.70639,0.18472 0.72498,0.61279 0.0266,0.61279 -0.29398,0 -0.52917,0.17639 -0.52917,0.39687 0,0.24695 0.24988,0.39688 0.66146,0.39688 0.3638,0 0.66146,0.11906 0.66146,0.26458 0,0.4065 -1.58522,0.31381 -1.74479,-0.10202 z m 2.27395,-1.23847 v -1.60505 l 0.70092,0.0837 c 0.38551,0.0461 0.83138,0.29208 0.99084,0.54675 l 0.28991,0.46302 -0.2921,0.46302 -0.2921,0.46302 0.39003,0.59531 c 0.55038,0.84007 0.0721,0.74174 -0.64356,-0.13229 l -0.59574,-0.72761 -0.01,0.72761 c -0.005,0.40018 -0.12858,0.7276 -0.2741,0.7276 -0.14732,0 -0.26459,-0.71141 -0.26459,-1.60507 z m 1.26229,-0.5612 c -0.16354,-0.4906 -0.73312,-0.57197 -0.73312,-0.10473 0,0.2304 0.18852,0.41892 0.41892,0.41892 0.23041,0 0.3718,-0.14139 0.3142,-0.31419 z m 1.44783,1.86014 c -0.39057,-0.39057 -0.4461,-2.86887 -0.0643,-2.86887 0.14552,0 0.26458,0.59532 0.26458,1.32292 v 1.32292 h 0.52917 0.52916 v -1.17501 c 0,-0.64626 0.12533,-1.25247 0.27851,-1.34714 0.18602,-0.11497 0.25192,0.34113 0.19844,1.37345 l -0.0801,1.54557 -0.66332,0.0775 c -0.36482,0.0426 -0.81131,-0.0705 -0.99219,-0.25136 z"
         style="fill:#293c7c;fill-opacity:0.976471;stroke-width:0.204458"
         id="path7989" /><path
         style="fill:#febd18;fill-opacity:1;stroke-width:0.204458"
         d="m 104.48732,142.64102 c -0.6371,-0.70399 -0.5456,-1.18923 0.44865,-2.37927 l 0.88653,-1.0611 0.83326,1.08417 c 0.45829,0.59629 0.83326,1.2822 0.83326,1.52423 0,1.17547 -2.15124,1.77172 -3.0017,0.83197 z m -2.64253,-0.79009 c -0.23902,-0.26412 -0.5622,-0.84632 -0.71819,-1.29378 l -0.28361,-0.81358 0.4126,-0.98749 c 0.22693,-0.54312 0.4126,-1.28906 0.4126,-1.65765 v -0.67015 l 0.52916,0.47889 c 0.605,0.54751 0.68301,1.65366 0.20906,2.96434 l -0.32011,0.88525 0.29713,0.78719 c 0.33582,0.8897 0.10683,1.02021 -0.53864,0.30698 z m 1.20105,-0.41515 -0.29624,-1.02764 0.36789,-0.71142 c 0.20234,-0.39129 0.55433,-0.86616 0.78221,-1.05528 0.22788,-0.18912 0.41614,-0.53764 0.41837,-0.77448 l 0.004,-0.43063 0.25648,0.39688 c 0.41545,0.64286 0.30399,1.46605 -0.30299,2.23769 -0.31217,0.39686 -0.64992,1.09753 -0.75055,1.55704 l -0.18297,0.83548 z m 4.98039,0.35144 c -0.004,-0.37191 -0.3057,-1.07965 -0.6695,-1.57276 -0.69545,-0.94263 -0.82485,-1.71901 -0.39688,-2.38125 l 0.25648,-0.39688 0.004,0.3824 c 0.002,0.21032 0.32527,0.71768 0.71787,1.12746 l 0.71381,0.74506 -0.0255,0.89852 c -0.014,0.49418 -0.15301,1.11792 -0.30889,1.38608 l -0.28342,0.48757 z m 1.1288,-0.24327 0.29713,-0.78719 -0.32011,-0.88525 c -0.45825,-1.26727 -0.39645,-2.15262 0.20025,-2.86888 l 0.52036,-0.62463 0.009,0.69529 c 0.005,0.38241 0.19606,1.14347 0.42493,1.69123 0.47339,1.13299 0.36559,1.85126 -0.42958,2.86216 -0.73466,0.93396 -1.0706,0.89436 -0.70179,-0.0827 z"
         id="path7979" /></g></g></svg>
